<svg width="45" height="33" viewBox="0 0 45 33" fill="none" xmlns="http://www.w3.org/2000/svg">
<path d="M44.5547 12.144C44.4197 12.0544 43.2952 11.1805 40.8661 11.1805C40.2364 11.1805 39.6067 11.2477 38.9769 11.3598C38.5046 8.22295 35.8731 6.63213 35.7607 6.56492L35.1085 6.18402L34.7036 6.78898C34.1638 7.59559 33.7365 8.51423 33.5566 9.45527C33.1068 11.2477 33.3766 12.9506 34.2988 14.407C33.1967 15.0343 31.3974 15.1912 31.0151 15.1912H1.39444C0.629748 15.1912 0 15.8185 0 16.6027C0 19.1794 0.404838 21.7561 1.30448 24.1759C2.31657 26.8422 3.84596 28.8139 5.80268 30.0238C8.0068 31.3682 11.6278 32.13 15.7437 32.13C17.5205 32.13 19.3648 31.9732 21.1865 31.6371C23.7055 31.189 26.1345 30.3151 28.3612 29.038C30.2052 27.9875 31.8558 26.6311 33.2417 25.0273C35.6033 22.4059 36.9977 19.4259 38.0098 16.8492H38.4371C41.0011 16.8492 42.598 15.8185 43.4751 14.9447C44.0599 14.407 44.4872 13.7572 44.8021 12.9954L44.982 12.4577L44.5547 12.144ZM4.16084 14.3622H8.11925C8.29918 14.3622 8.47911 14.2053 8.47911 14.0037V10.4635C8.47911 10.2843 8.32167 10.105 8.11925 10.105H4.16084C3.95842 10.105 3.80098 10.2619 3.80098 10.4635V14.0037C3.82347 14.2053 3.95842 14.3622 4.16084 14.3622ZM9.62615 14.3622H13.5846C13.7645 14.3622 13.9444 14.2053 13.9444 14.0037V10.4635C13.9444 10.2843 13.787 10.105 13.5846 10.105H9.62615C9.42373 10.105 9.26629 10.2619 9.26629 10.4635V14.0037C9.28878 14.2053 9.42373 14.3622 9.62615 14.3622ZM15.1814 14.3622H19.1174C19.3423 14.3622 19.4997 14.2053 19.4997 14.0037V10.4635C19.4997 10.2843 19.3648 10.105 19.1174 10.105H15.1814C15.0015 10.105 14.8441 10.2619 14.8441 10.4635V14.0037C14.8441 14.2053 14.979 14.3622 15.1814 14.3622ZM20.6692 14.3622H24.6501C24.8301 14.3622 24.9875 14.2053 24.9875 14.0037V10.4635C24.9875 10.2843 24.8526 10.105 24.6501 10.105H20.6692C20.4893 10.105 20.3319 10.2619 20.3319 10.4635V14.0037C20.3319 14.2053 20.4893 14.3622 20.6692 14.3622ZM9.62615 9.34324H13.5846C13.7645 9.34324 13.9444 9.14159 13.9444 8.93994V5.42222C13.9444 5.22057 13.787 5.06372 13.5846 5.06372H9.62615C9.42373 5.06372 9.26629 5.19816 9.26629 5.42222V8.93994C9.28878 9.14159 9.42373 9.34324 9.62615 9.34324ZM15.1814 9.34324H19.1174C19.3423 9.34324 19.4997 9.14159 19.4997 8.93994V5.42222C19.4997 5.22057 19.3648 5.06372 19.1174 5.06372H15.1814C15.0015 5.06372 14.8441 5.19816 14.8441 5.42222V8.93994C14.8441 9.14159 14.979 9.34324 15.1814 9.34324ZM20.6692 9.34324H24.6501C24.8301 9.34324 24.9875 9.14159 24.9875 8.93994V5.42222C24.9875 5.22057 24.8301 5.06372 24.6501 5.06372H20.6692C20.4893 5.06372 20.3319 5.19816 20.3319 5.42222V8.93994C20.3319 9.14159 20.4893 9.34324 20.6692 9.34324ZM20.6692 4.23471H24.6501C24.8301 4.23471 24.9875 4.07787 24.9875 3.87621V0.3809C24.9875 0.156841 24.8301 0 24.6501 0H20.6692C20.4893 0 20.3319 0.134435 20.3319 0.3809V3.87621C20.3319 4.05546 20.4893 4.23471 20.6692 4.23471ZM26.202 14.3622H30.1604C30.3629 14.3622 30.5203 14.2053 30.5203 14.0037V10.4635C30.5203 10.2843 30.3629 10.105 30.1604 10.105H26.202C26.0221 10.105 25.8647 10.2619 25.8647 10.4635V14.0037C25.8647 14.2053 26.0221 14.3622 26.202 14.3622Z" fill="#C7C8C9"/>
</svg>
