<svg width="30" height="32" viewBox="0 0 30 32" fill="none" xmlns="http://www.w3.org/2000/svg">
<path d="M16.3134 0C13.7914 1.6 13.3181 3.71625 13.3181 3.71625C13.3181 3.71625 13.3186 3.76775 13.2924 3.81925C13.1346 3.84525 13.0295 3.89675 12.8982 3.9225C12.7144 3.974 12.5304 4.02575 12.3464 4.129L11.7947 4.3615C11.4269 4.542 11.0592 4.69675 10.6912 4.90325C10.3497 5.10975 10.0084 5.29025 9.66687 5.5225C9.6383 5.5092 9.61182 5.49194 9.58823 5.47125C6.19942 4.181 3.20456 5.729 3.20456 5.729C2.94193 9.29025 4.57042 11.484 4.88573 11.897C4.80684 12.1293 4.72795 12.3355 4.64906 12.542C4.3851 13.3486 4.20051 14.1783 4.09783 15.0195C4.07161 15.1227 4.07136 15.2778 4.04515 15.3807C0.91897 16.9032 0 20.0257 0 20.0257C2.60065 22.9677 5.64794 23.1483 5.64794 23.1483C6.01568 23.8195 6.48827 24.4905 6.98758 25.084C7.19754 25.342 7.43447 25.574 7.64468 25.832C6.69899 28.49 7.80221 30.7353 7.80221 30.7353C10.7182 30.8385 12.6355 29.4965 13.0295 29.161C13.3186 29.2385 13.6077 29.342 13.8965 29.4195C14.7806 29.6491 15.6885 29.7791 16.6025 29.8067H17.7844C19.1505 31.7422 21.5674 32 21.5674 32C23.2751 30.2192 23.3802 28.4905 23.3802 28.0775V27.9225C23.7217 27.6643 24.063 27.4065 24.431 27.1225C25.114 26.529 25.692 25.8065 26.2175 25.084C26.2699 25.0322 26.2961 24.929 26.3748 24.8775C28.3188 24.9808 29.6585 23.6905 29.6585 23.6905C29.3429 21.7033 28.1875 20.7485 27.9508 20.568L27.9246 20.542L27.8984 20.516L27.8719 20.4902C27.8719 20.387 27.8984 20.2577 27.8984 20.129C27.9246 19.8965 27.9246 19.6902 27.9246 19.484V18.6322C27.9246 18.5807 27.9246 18.529 27.8984 18.4517L27.8719 18.271L27.8457 18.0903C27.8193 17.858 27.7668 17.6517 27.7406 17.4452C27.5307 16.5938 27.1894 15.7677 26.769 15.0708C26.2961 14.3225 25.7444 13.703 25.1138 13.1353C24.4834 12.5933 23.7741 12.129 23.0386 11.8193C22.2767 11.4838 21.5412 11.2775 20.7533 11.2002C20.3853 11.1485 19.9649 11.1485 19.5969 11.1485H18.9927C18.7828 11.1743 18.5993 11.1997 18.415 11.2255C17.6271 11.3805 16.9178 11.6645 16.2875 12.0258C15.6568 12.3872 15.1051 12.8775 14.6323 13.4195C14.1594 13.9613 13.8179 14.529 13.5812 15.1485C13.3474 15.7424 13.2143 16.37 13.1873 17.0063V17.6772C13.1873 17.7547 13.1873 17.8323 13.2137 17.9097C13.2399 18.2192 13.2926 18.5033 13.3975 18.7873C13.5815 19.3547 13.8444 19.8708 14.1859 20.3097C14.5105 20.7285 14.9005 21.0942 15.3413 21.3935C15.7882 21.6775 16.2086 21.8835 16.6814 22.0128C17.1543 22.142 17.5744 22.2192 17.9946 22.1933H18.5993C18.6517 22.1933 18.7041 22.168 18.7568 22.168C18.8092 22.168 18.8357 22.142 18.9143 22.142C18.9932 22.1163 19.1243 22.0903 19.2032 22.0645C19.3869 22.0128 19.5447 21.9095 19.7285 21.858C19.9125 21.7805 20.044 21.6775 20.1753 21.6C20.2016 21.5743 20.254 21.5482 20.2802 21.5225C20.438 21.4192 20.4642 21.213 20.3329 21.058C20.2278 20.9548 20.0438 20.903 19.886 20.9805C19.8598 21.0062 19.8338 21.0065 19.7811 21.0322C19.676 21.0837 19.5185 21.1355 19.4134 21.187C19.2556 21.2127 19.1245 21.2645 18.967 21.2905C18.8881 21.2905 18.8092 21.316 18.7303 21.316H18.0738C18.0475 21.316 17.9949 21.3162 17.9684 21.2905C17.6531 21.239 17.3118 21.1355 16.9967 21.0063C16.6814 20.8515 16.3661 20.6712 16.1035 20.413C15.8168 20.1566 15.5691 19.8611 15.368 19.5355C15.1578 19.2002 15.0524 18.813 15 18.4517C14.9738 18.2453 14.9473 18.0642 14.9738 17.858V17.5483C14.9738 17.445 15 17.342 15.0265 17.2388C15.184 16.3873 15.6042 15.5613 16.261 14.942C16.445 14.7613 16.6025 14.6325 16.8127 14.5035C17.023 14.3485 17.2064 14.2455 17.4167 14.168C17.6269 14.0905 17.8635 13.9873 18.0738 13.9355C18.3104 13.884 18.5466 13.832 18.7568 13.832C18.8619 13.832 18.9932 13.8068 19.0983 13.8068H19.4134C19.676 13.8325 19.9389 13.858 20.1753 13.9097C20.6744 14.013 21.1475 14.1935 21.6203 14.4517C22.5398 14.9677 23.3275 15.7417 23.8003 16.671C24.037 17.1355 24.1943 17.626 24.2994 18.168C24.3256 18.323 24.3259 18.4255 24.3521 18.5548V19.2515C24.3521 19.4065 24.3259 19.5355 24.3259 19.6905C24.2994 19.8455 24.2999 19.974 24.2737 20.129C24.2472 20.2838 24.2207 20.413 24.1945 20.5678C24.1421 20.8518 24.0108 21.1097 23.9322 21.3935C23.7219 21.9355 23.4326 22.4515 23.0911 22.89C22.408 23.8193 21.4364 24.5938 20.3858 25.084C19.8338 25.3162 19.2821 25.5228 18.7041 25.6C18.4181 25.6513 18.1279 25.6772 17.8371 25.6772H17.3904C17.2327 25.6772 17.0754 25.6777 16.9176 25.6518C16.2872 25.6003 15.6833 25.4708 15.0791 25.316C14.4747 25.1353 13.8965 24.929 13.3448 24.645C12.2416 24.0775 11.2699 23.2518 10.4818 22.3228C10.114 21.8325 9.74576 21.316 9.45691 20.7997C9.16807 20.2835 8.95786 19.6903 8.80033 19.1225C8.61633 18.555 8.53769 17.9613 8.51148 17.3675V16.4643C8.51148 16.1805 8.53744 15.8713 8.59011 15.5618C8.61633 15.2517 8.66875 14.9677 8.74765 14.6582C8.80007 14.3485 8.90543 14.0645 8.98432 13.7548C9.16807 13.1613 9.35181 12.5938 9.61444 12.0518C10.1397 10.968 10.7966 10.013 11.5847 9.23875C11.7827 9.04466 11.9934 8.8636 12.2156 8.69675C12.2945 8.61925 12.5045 8.4385 12.7409 8.3095C12.9773 8.1805 13.2137 8.0255 13.4764 7.92225C13.5817 7.87075 13.713 7.819 13.8444 7.74175C13.8968 7.716 13.9489 7.69025 14.0541 7.6645C14.1067 7.63875 14.1594 7.61275 14.2643 7.587C14.5272 7.48375 14.79 7.38075 15.0527 7.30325C15.1054 7.2775 15.2105 7.27725 15.2629 7.2515C15.3156 7.22575 15.4202 7.226 15.4726 7.20025C15.6304 7.1745 15.7355 7.14825 15.8671 7.09675C15.9195 7.07075 16.0246 7.07075 16.077 7.045C16.1297 7.045 16.2348 7.0195 16.2875 7.0195C16.3402 7.0195 16.4453 6.99375 16.4977 6.99375L16.6025 6.96775L16.7074 6.942C16.7598 6.942 16.8652 6.916 16.9176 6.916C16.9965 6.916 17.0754 6.89 17.1543 6.89C17.2067 6.89 17.3378 6.86475 17.3904 6.86475C17.4429 6.86475 17.4696 6.86475 17.5482 6.83875H17.7322C17.8111 6.83875 17.8895 6.83875 17.9684 6.813H19.151C19.6763 6.83875 20.2016 6.8905 20.6744 6.99375C21.6466 7.17425 22.6182 7.484 23.4588 7.897C24.2996 8.284 25.0875 8.79975 25.7179 9.342C25.7444 9.3675 25.7971 9.39375 25.8233 9.44525C25.8497 9.471 25.9022 9.49675 25.9281 9.54825C26.007 9.6 26.0859 9.70325 26.1648 9.75475C26.2437 9.8065 26.3226 9.90975 26.4015 9.9615C26.4539 10.039 26.5588 10.116 26.6112 10.1932C26.9003 10.4773 27.1632 10.787 27.3996 11.0708C27.8352 11.6171 28.2137 12.205 28.5295 12.8258C28.5555 12.8515 28.555 12.8775 28.5815 12.9292C28.6077 12.955 28.6079 12.9805 28.6341 13.0323C28.6604 13.0838 28.6866 13.1873 28.739 13.2388C28.7655 13.2903 28.7919 13.3937 28.8179 13.4452C28.8444 13.497 28.8708 13.6002 28.897 13.6517C29.0021 13.91 29.1072 14.1677 29.1859 14.4257C29.3437 14.8127 29.4223 15.174 29.5012 15.4583C29.5274 15.5612 29.659 15.6645 29.7641 15.6645C29.9216 15.6645 30 15.561 30 15.4062C29.9211 14.9675 29.9216 14.6068 29.8951 14.168C29.8426 13.6258 29.7375 13.0063 29.5801 12.3095C29.4223 11.6128 29.1067 10.8903 28.739 10.0903C28.345 9.31625 27.846 8.49025 27.1891 7.74175C26.9265 7.432 26.6377 7.1485 26.3488 6.83875C26.8217 5.05825 25.7971 3.48375 25.7971 3.48375C24.037 3.38075 22.9333 4.02575 22.5393 4.3095C22.4869 4.28375 22.382 4.25825 22.3296 4.2325C22.0405 4.12925 21.7252 4 21.4101 3.897C21.0946 3.8195 20.7795 3.69025 20.4642 3.63875C20.1489 3.56125 19.8076 3.48375 19.4396 3.432C19.3872 3.432 19.3345 3.40625 19.2559 3.40625C18.5201 1.032 16.3134 0 16.3134 0Z" fill="#C7C8C9"/>
</svg>
