<svg width="26" height="32" viewBox="0 0 26 32" fill="none" xmlns="http://www.w3.org/2000/svg">
<path d="M13.6629 0C13.4595 0 13.2491 0.00933344 13.0317 0.0280003C7.47436 0.472005 8.94851 6.43741 8.86303 8.42543C8.76309 9.88145 8.46852 11.0295 7.48225 12.4521C6.31845 13.8535 4.68518 16.1189 3.91063 18.4802C3.54505 19.5896 3.37147 20.7256 3.53321 21.7989C3.47254 21.8474 3.42316 21.9089 3.38856 21.9789C3.04665 22.3363 2.7968 22.7789 2.5167 23.0976C2.255 23.3629 1.87891 23.4536 1.46862 23.6309C1.05701 23.8123 0.603325 23.9896 0.332429 24.5376C0.214076 24.7896 0.153585 25.063 0.158845 25.3403C0.158845 25.6056 0.194351 25.8736 0.231172 26.055C0.307443 26.587 0.383715 27.0256 0.283773 27.3483C-0.04367 28.255 -0.0844358 28.875 0.14438 29.327C0.373195 29.7723 0.847921 29.9537 1.38051 30.1283C2.44568 30.395 3.89222 30.3083 5.0284 30.9284C6.24612 31.5497 7.48225 31.8217 8.46852 31.555C9.16023 31.4004 9.7441 30.9364 10.0571 30.2937C10.829 30.2897 11.6746 29.935 13.0291 29.8483C13.9483 29.771 15.0989 30.2043 16.4179 30.115C16.4508 30.2937 16.5007 30.379 16.5678 30.559L16.5717 30.563C17.0859 31.6004 18.0354 32.0724 19.0493 31.991C20.0632 31.9097 21.1428 31.2764 22.0173 30.2497C22.8471 29.2297 24.2305 28.8043 25.1444 28.2457C25.6021 27.9803 25.9716 27.6203 25.9979 27.1083C26.0281 26.575 25.7349 26.027 25.059 25.2736V25.1443L25.055 25.1403C24.8315 24.8736 24.7263 24.427 24.6105 23.9056C24.4988 23.3709 24.3712 22.8576 23.9635 22.5109H23.9596C23.882 22.4389 23.7978 22.4216 23.7124 22.3309C23.6387 22.2791 23.5521 22.2495 23.4625 22.2456C24.0293 20.5416 23.8097 18.8456 23.235 17.3202C22.5341 15.4402 21.3085 13.8028 20.3748 12.6761C19.328 11.3361 18.3023 10.0668 18.3234 8.18543C18.3576 5.31606 18.6337 0.00800009 13.6629 0ZM14.3585 4.54005H14.3756C14.6557 4.54005 14.8964 4.62272 15.1436 4.80406C15.3935 4.98406 15.5776 5.24673 15.7196 5.51473C15.8577 5.86007 15.9274 6.12674 15.9379 6.48007C15.9379 6.45341 15.9458 6.42674 15.9458 6.40007V6.54008L15.9405 6.51207L15.9353 6.48007C15.9329 6.80414 15.8658 7.12436 15.738 7.42142C15.6767 7.58865 15.5813 7.74086 15.4579 7.86809C15.4203 7.84753 15.3816 7.82884 15.3422 7.81209C15.2054 7.75209 15.0818 7.72676 14.9687 7.63475C14.875 7.59682 14.7782 7.56738 14.6794 7.54675C14.7452 7.46675 14.8714 7.36942 14.9201 7.28275C14.9902 7.11119 15.0288 6.93252 15.0358 6.74674V6.72008C15.039 6.53898 15.0119 6.35863 14.9556 6.18674C14.8964 6.00807 14.8228 5.92007 14.7149 5.74273C14.6045 5.65473 14.4953 5.56673 14.3638 5.56673H14.3428C14.2205 5.56673 14.1113 5.60673 13.9982 5.74273C13.8733 5.86622 13.7807 6.01926 13.7286 6.18807C13.6593 6.35765 13.6193 6.53806 13.6103 6.72141V6.74674C13.612 6.86586 13.6208 6.98453 13.6366 7.10275C13.3828 7.01341 13.0606 6.92275 12.8384 6.83341C12.8261 6.74498 12.8182 6.65598 12.8147 6.56674V6.54008C12.8056 6.1882 12.8729 5.8386 13.012 5.51606C13.1194 5.22325 13.3179 4.97381 13.5774 4.80539C13.8029 4.63392 14.0767 4.54177 14.3585 4.54005ZM10.4634 4.61872H10.5108C10.6975 4.61872 10.8658 4.68272 11.0355 4.79872C11.2275 4.97072 11.3826 5.18273 11.4878 5.41873C11.6062 5.68407 11.6719 5.95207 11.689 6.30807V6.31341C11.6982 6.49208 11.6969 6.58008 11.6864 6.66808V6.77474C11.647 6.78408 11.6128 6.79875 11.5773 6.80675C11.3774 6.88008 11.2169 6.98675 11.0604 7.07341C11.0762 6.95252 11.0775 6.83386 11.0644 6.71741V6.69741C11.0486 6.52007 11.0118 6.43074 10.9566 6.25341C10.9163 6.11717 10.8409 5.99429 10.7383 5.8974C10.7058 5.86765 10.6678 5.84477 10.6264 5.83012C10.5851 5.81547 10.5413 5.80933 10.4976 5.81207H10.47C10.3766 5.82007 10.299 5.8654 10.2254 5.98807C10.1414 6.09123 10.0868 6.21572 10.0676 6.34807C10.0335 6.49202 10.0233 6.64072 10.0374 6.78808V6.80808C10.0531 6.98808 10.086 7.07475 10.1426 7.25342C10.203 7.43209 10.2714 7.52009 10.3609 7.61075C10.3731 7.6232 10.388 7.63387 10.4056 7.64276C10.3135 7.71876 10.2517 7.73609 10.1741 7.82409C10.125 7.86839 10.0658 7.89955 10.0019 7.91476C9.86503 7.74796 9.74395 7.5685 9.64022 7.37875C9.51677 7.09826 9.44758 6.79635 9.43639 6.48941C9.41594 6.18845 9.45163 5.88628 9.54159 5.59873C9.61286 5.33628 9.73988 5.09281 9.91374 4.88539C10.0821 4.70805 10.2557 4.61872 10.4634 4.61872ZM12.265 6.89341C12.7016 6.89341 13.2289 6.98008 13.8641 7.42542C14.2494 7.69209 14.5519 7.78409 15.2475 8.04943H15.2515C15.5868 8.23076 15.784 8.4041 15.88 8.58143V8.40676C15.9273 8.50369 15.9536 8.60973 15.9573 8.7178C15.9609 8.82587 15.9417 8.93348 15.9011 9.03344C15.7393 9.44678 15.2225 9.89078 14.5032 10.1561V10.1588C14.1508 10.3388 13.8444 10.6028 13.4841 10.7788C13.1211 10.9588 12.7108 11.1681 12.1532 11.1348C11.9529 11.1468 11.7522 11.1164 11.5641 11.0455C11.4189 10.9643 11.2776 10.8762 11.1407 10.7815C10.8842 10.6015 10.6633 10.3388 10.3359 10.1615V10.1548H10.3293C9.80328 9.82678 9.51923 9.47211 9.42718 9.20811C9.33601 8.84988 9.42061 8.58321 9.68098 8.4081C9.97555 8.2281 10.1807 8.04676 10.3161 7.96009C10.4529 7.86142 10.5042 7.82409 10.5476 7.78542H10.5502V7.78142C10.7725 7.51209 11.1236 7.15475 11.6535 6.98008C11.8363 6.93208 12.0401 6.89341 12.2663 6.89341H12.265ZM15.9471 9.74945C16.4179 11.6388 17.5199 14.3828 18.2287 15.7135C18.6048 16.4255 19.353 17.9255 19.6778 19.7456C19.883 19.7389 20.1118 19.7696 20.3525 19.8309C21.202 17.6029 19.6345 15.2082 18.9204 14.5428C18.6311 14.2762 18.6153 14.0962 18.7586 14.0962C19.5345 14.8082 20.5537 16.1922 20.9232 17.7722C21.0941 18.4855 21.1336 19.2442 20.9508 19.9989C21.0389 20.0362 21.1283 20.0789 21.2204 20.0882C22.5775 20.8002 23.0785 21.3389 22.8379 22.1376V22.0803C22.759 22.0763 22.6801 22.0803 22.6012 22.0803H22.5801C22.7787 21.4576 22.3408 20.9802 21.1796 20.4482C19.9764 19.9149 19.0151 20.0002 18.852 21.0682C18.8415 21.1256 18.8349 21.1562 18.8283 21.2482C18.7389 21.2789 18.6455 21.3189 18.5535 21.3336C17.988 21.6909 17.6829 22.2256 17.5107 22.9163C17.3397 23.6269 17.2871 24.4576 17.2411 25.4083V25.4123C17.2148 25.8576 17.0175 26.5296 16.8216 27.2123C14.8491 28.6417 12.1138 29.263 9.78882 27.6577C9.64227 27.3995 9.4647 27.1608 9.26017 26.947C9.16138 26.7821 9.03958 26.6325 8.89854 26.503C9.13787 26.503 9.34302 26.463 9.51003 26.4136C9.69873 26.3241 9.84648 26.1648 9.92295 25.9683C10.065 25.6123 9.92295 25.039 9.46926 24.4176C9.01558 23.7963 8.24497 23.0909 7.11799 22.3896C6.28952 21.8563 5.82137 21.2296 5.6057 20.5282C5.38872 19.8162 5.41765 19.0816 5.58598 18.3349C5.90816 16.9082 6.734 15.5215 7.26133 14.6508C7.40203 14.5642 7.30998 14.8308 6.72479 15.9495C6.20404 16.9509 5.22566 19.2789 6.56436 21.0882C6.61425 19.768 6.90263 18.4682 7.41518 17.2535C8.15686 15.5495 9.70728 12.5815 9.82958 10.2295C9.8927 10.2775 10.1149 10.4095 10.2096 10.4988C10.4963 10.6761 10.7093 10.9428 10.9855 11.1188C11.2617 11.3868 11.6128 11.5655 12.1375 11.5655C12.1883 11.5699 12.2365 11.5726 12.2821 11.5735C12.8239 11.5735 13.2421 11.3948 13.5932 11.2161C13.9746 11.0375 14.277 10.7708 14.5663 10.6828H14.5729C15.187 10.5028 15.6709 10.1468 15.9458 9.74945H15.9471ZM18.8204 21.6936C18.8691 22.4936 19.2715 23.3536 19.9803 23.5296C20.7535 23.7083 21.8661 23.0856 22.3355 22.5096L22.613 22.4963C23.0272 22.4869 23.3718 22.5096 23.7268 22.8536L23.7308 22.8576C24.0043 23.1229 24.1319 23.5643 24.2449 24.0256C24.3567 24.5589 24.4475 25.0656 24.7828 25.447C25.4219 26.1496 25.631 26.655 25.6192 26.967L25.6231 26.9576V26.9816L25.6192 26.967C25.5994 27.3163 25.3759 27.4937 24.9643 27.759C24.1358 28.2937 22.6682 28.7083 21.7332 29.8523C20.9206 30.835 19.9316 31.3724 19.0558 31.4404C18.1827 31.511 17.4291 31.1737 16.986 30.243L16.9794 30.239C16.7032 29.7057 16.8216 28.8723 17.053 27.9857C17.2845 27.095 17.6159 26.1936 17.6619 25.4563C17.7106 24.5043 17.7618 23.6763 17.9183 23.0376C18.0761 22.4176 18.3234 21.9749 18.7613 21.7256L18.8204 21.6963V21.6936ZM4.5997 21.7589H4.61285C4.68299 21.7589 4.75181 21.7651 4.81931 21.7776C5.31377 21.8509 5.74773 22.2216 6.16459 22.7803L7.36127 24.999L7.36521 25.003C7.68477 25.7136 8.35675 26.4216 8.92879 27.1856C9.49951 27.983 9.94136 28.6937 9.88744 29.279V29.287C9.81249 30.279 9.25623 30.8177 8.40803 31.0124C7.55984 31.1924 6.40919 31.015 5.25853 30.3937C3.98558 29.679 2.4733 29.7683 1.50149 29.591C1.01668 29.5021 0.699761 29.3243 0.550724 29.0577C0.406071 28.791 0.402125 28.255 0.712473 27.4177V27.4123L0.715103 27.4083C0.868962 26.963 0.754554 26.4056 0.679597 25.9176C0.60727 25.383 0.57045 24.971 0.736143 24.6643C0.946548 24.2189 1.2569 24.1309 1.64351 23.9536C2.03013 23.7736 2.48513 23.6843 2.84677 23.3269H2.8494V23.3243C3.18605 22.9669 3.43459 22.5229 3.72784 22.2069C3.97769 21.9389 4.22755 21.7589 4.5997 21.7589ZM14.014 9.66011C13.442 9.92811 12.7713 10.3735 12.0572 10.3735C11.3445 10.3735 10.7817 10.0174 10.374 9.75211C10.1715 9.57344 10.0058 9.39478 9.8835 9.30544C9.66783 9.12677 9.69413 8.86144 9.78619 8.86144C9.92952 8.88277 9.95582 9.0401 10.0479 9.12811C10.1741 9.21611 10.3306 9.39478 10.5213 9.57211C10.9053 9.83878 11.4155 10.1948 12.0559 10.1948C12.6937 10.1948 13.4407 9.83878 13.8943 9.57344C14.1508 9.39344 14.4795 9.12811 14.7465 8.95077C14.9516 8.76943 14.9424 8.59477 15.1134 8.59477C15.2817 8.6161 15.1581 8.77343 14.9201 9.03744C14.6285 9.26129 14.3256 9.46957 14.0127 9.66144L14.014 9.66011ZM12.5911 7.54942V7.52009C12.5833 7.49342 12.6082 7.46409 12.6293 7.45342C12.7266 7.39609 12.866 7.41742 12.9712 7.45875C13.054 7.45875 13.1816 7.54809 13.1684 7.63876C13.1606 7.70409 13.0567 7.72676 12.9909 7.72676C12.9186 7.72676 12.8699 7.66942 12.8055 7.63609C12.7371 7.61209 12.6135 7.62542 12.5911 7.54942ZM11.8666 7.54942C11.8403 7.62676 11.718 7.61476 11.6483 7.63742C11.5865 7.67076 11.5352 7.72809 11.4642 7.72809C11.3984 7.72809 11.2932 7.70142 11.2853 7.63742C11.2722 7.54942 11.401 7.46009 11.4826 7.46009C11.5878 7.41875 11.7245 7.39742 11.8232 7.45342C11.8482 7.46542 11.8705 7.49342 11.8626 7.52009V7.54675H11.8666V7.54942Z" fill="#C7C8C9"/>
</svg>
