<svg width="58" height="16" viewBox="0 0 58 16" fill="none" xmlns="http://www.w3.org/2000/svg">
<path d="M0 0H58V15.1904H0V0Z" fill="#C7C8C9"/>
<path d="M2.48573 2.31309H10.875V3.41781L4.10837 11.6691H11.0476V12.8774H2.31309V11.7726L9.07972 3.52146H2.48562L2.48573 2.31309ZM16.7096 3.72854L14.7416 8.97618H18.6774L16.7096 3.72854ZM15.8809 2.3132H17.5035L21.5774 12.8775H20.0928L19.1262 10.1847H14.2928L13.3262 12.8775H11.8071L15.8809 2.3132ZM24.5809 7.83702V11.7037H26.8941C27.6881 11.7037 28.2404 11.531 28.6203 11.2204C29.0001 10.9098 29.1726 10.4263 29.1726 9.77039C29.1726 9.1145 29 8.63101 28.6203 8.32039C28.2406 8.00978 27.6535 7.83702 26.8941 7.83702H24.5809ZM24.5809 3.48702V6.6632H26.7215C27.4119 6.6632 27.9643 6.52511 28.3096 6.28348C28.6547 6.0073 28.8274 5.62759 28.8274 5.07511C28.8274 4.5573 28.6547 4.14292 28.3096 3.86674C27.9643 3.59056 27.4463 3.48702 26.7213 3.48702H24.5809ZM23.1309 2.3132H26.825C27.9297 2.3132 28.7584 2.55483 29.3797 3.00365C29.9666 3.45247 30.2774 4.10848 30.2774 4.93702C30.2774 5.59292 30.1393 6.11084 29.8285 6.49056C29.5178 6.87043 29.0691 7.1121 28.4822 7.21556C29.2072 7.35377 29.7596 7.6645 30.1393 8.14775C30.5191 8.63101 30.7262 9.21792 30.7262 9.94292C30.7262 10.8751 30.4154 11.6001 29.7596 12.1179C29.1037 12.6358 28.2059 12.8775 26.9976 12.8775H23.1309V2.3132ZM34.4893 7.83702V11.7037H36.8025C37.5619 11.7037 38.1488 11.531 38.5285 11.2204C38.9083 10.9098 39.0809 10.4263 39.0809 9.77039C39.0809 9.1145 38.9084 8.63101 38.5285 8.32039C38.1488 8.00966 37.5619 7.83702 36.8024 7.83702H34.4893ZM34.4893 3.48702V6.6632H36.6297C37.3203 6.6632 37.8726 6.52511 38.2179 6.28348C38.5631 6.0073 38.7356 5.62759 38.7356 5.07511C38.7356 4.5573 38.5631 4.14292 38.2179 3.86674C37.8728 3.59056 37.3547 3.48702 36.6297 3.48702H34.4893ZM33.0393 2.3132H36.7334C37.8381 2.3132 38.6666 2.55483 39.2881 3.00365C39.875 3.45247 40.1857 4.10848 40.1857 4.93702C40.1857 5.59292 40.0475 6.11084 39.7369 6.49056C39.4261 6.87043 38.9773 7.1121 38.3904 7.21556C39.1154 7.35377 39.6678 7.6645 40.0476 8.14775C40.4274 8.63101 40.6344 9.21792 40.6344 9.94292C40.6344 10.8751 40.3238 11.6001 39.6678 12.1179C39.0119 12.6358 38.1143 12.8775 36.906 12.8775H33.0393V2.3132ZM42.9131 2.3132H44.3631V12.8775H42.9131V2.3132ZM47.0905 2.3132H48.6787L51.1988 6.11084L53.7535 2.3132H55.2726L51.9584 7.25L55.6869 12.8774H54.0987L51.1643 8.45826L48.2297 12.8774H46.6762L50.4047 7.28455L47.0905 2.3132Z" fill="#56575A"/>
</svg>
